<mxfile host="Electron" modified="2023-11-22T14:21:32.778Z" agent="Mozilla/5.0 (X11; Linux x86_64) AppleWebKit/537.36 (KHTML, like Gecko) draw.io/22.1.2 Chrome/114.0.5735.289 Electron/25.9.4 Safari/537.36" etag="J-J6PS34B85n9rS8ROZ2" version="22.1.2" type="device">
  <diagram name="Page-1" id="tFrUOxWwpVR1sW8zNlCO">
    <mxGraphModel dx="1436" dy="1007" grid="1" gridSize="10" guides="1" tooltips="1" connect="1" arrows="1" fold="1" page="1" pageScale="1" pageWidth="850" pageHeight="1100" math="0" shadow="0">
      <root>
        <mxCell id="0" />
        <mxCell id="1" parent="0" />
        <mxCell id="Q5wCeLh6FtFtZmpvEJQd-5" value="&lt;font style=&quot;font-size: 24px;&quot;&gt;System&lt;br&gt;&lt;br&gt;&lt;br&gt;&lt;br&gt;&lt;br&gt;&lt;br&gt;&lt;br&gt;&lt;/font&gt;" style="rounded=1;whiteSpace=wrap;html=1;fillColor=#f5f5f5;strokeColor=#666666;fontColor=#333333;align=center;" vertex="1" parent="1">
          <mxGeometry x="80" y="100" width="540" height="260" as="geometry" />
        </mxCell>
        <mxCell id="Q5wCeLh6FtFtZmpvEJQd-13" value="" style="orthogonalLoop=1;jettySize=auto;html=1;strokeWidth=1;shape=flexArrow;fillColor=#e1d5e7;strokeColor=#9673a6;" edge="1" parent="1" source="Q5wCeLh6FtFtZmpvEJQd-1" target="Q5wCeLh6FtFtZmpvEJQd-2">
          <mxGeometry relative="1" as="geometry" />
        </mxCell>
        <mxCell id="Q5wCeLh6FtFtZmpvEJQd-1" value="&lt;font style=&quot;font-size: 24px;&quot;&gt;Core&lt;/font&gt;" style="rounded=1;whiteSpace=wrap;html=1;fillColor=#dae8fc;strokeColor=#6c8ebf;" vertex="1" parent="1">
          <mxGeometry x="120" y="180" width="110" height="60" as="geometry" />
        </mxCell>
        <mxCell id="Q5wCeLh6FtFtZmpvEJQd-2" value="&lt;font style=&quot;font-size: 24px;&quot;&gt;Interconnect&lt;/font&gt;" style="rounded=1;whiteSpace=wrap;html=1;fillColor=#dae8fc;strokeColor=#6c8ebf;" vertex="1" parent="1">
          <mxGeometry x="280" y="175" width="145" height="60" as="geometry" />
        </mxCell>
        <mxCell id="Q5wCeLh6FtFtZmpvEJQd-3" value="&lt;font style=&quot;font-size: 24px;&quot;&gt;Memory&lt;/font&gt;" style="rounded=1;whiteSpace=wrap;html=1;fillColor=#dae8fc;strokeColor=#6c8ebf;" vertex="1" parent="1">
          <mxGeometry x="480" y="175" width="120" height="60" as="geometry" />
        </mxCell>
        <mxCell id="Q5wCeLh6FtFtZmpvEJQd-4" value="&lt;font style=&quot;font-size: 24px;&quot;&gt;Loader&lt;/font&gt;" style="rounded=1;whiteSpace=wrap;html=1;fillColor=#dae8fc;strokeColor=#6c8ebf;" vertex="1" parent="1">
          <mxGeometry x="290" y="280" width="120" height="60" as="geometry" />
        </mxCell>
        <mxCell id="Q5wCeLh6FtFtZmpvEJQd-14" value="" style="orthogonalLoop=1;jettySize=auto;html=1;strokeWidth=1;shape=flexArrow;exitX=1;exitY=0.5;exitDx=0;exitDy=0;entryX=0;entryY=0.5;entryDx=0;entryDy=0;fillColor=#e1d5e7;strokeColor=#9673a6;" edge="1" parent="1" source="Q5wCeLh6FtFtZmpvEJQd-2" target="Q5wCeLh6FtFtZmpvEJQd-3">
          <mxGeometry relative="1" as="geometry">
            <mxPoint x="240" y="218" as="sourcePoint" />
            <mxPoint x="290" y="217" as="targetPoint" />
          </mxGeometry>
        </mxCell>
        <mxCell id="Q5wCeLh6FtFtZmpvEJQd-15" value="" style="orthogonalLoop=1;jettySize=auto;html=1;strokeWidth=1;shape=flexArrow;exitX=0.5;exitY=0;exitDx=0;exitDy=0;entryX=0.455;entryY=1.035;entryDx=0;entryDy=0;fillColor=#e1d5e7;strokeColor=#9673a6;entryPerimeter=0;" edge="1" parent="1" source="Q5wCeLh6FtFtZmpvEJQd-4" target="Q5wCeLh6FtFtZmpvEJQd-2">
          <mxGeometry relative="1" as="geometry">
            <mxPoint x="435" y="194" as="sourcePoint" />
            <mxPoint x="480" y="170" as="targetPoint" />
          </mxGeometry>
        </mxCell>
      </root>
    </mxGraphModel>
  </diagram>
</mxfile>
